<svg width="500" height="500" xmlns="http://www.w3.org/2000/svg">
<polygon points="160,320 498,248 51,220" fill="none" stroke="black"/>
<polygon points="118,474 419,79 15,455" fill="none" stroke="black"/>
<polygon points="186,443 110,412 290,369" fill="none" stroke="black"/>
<polygon points="114,467 386,435 179,372" fill="none" stroke="black"/>
<polygon points="5,334 196,160 59,41" fill="none" stroke="black"/>
<polygon points="359,372 196,268 436,205" fill="none" stroke="black"/>
<polygon points="202,345 327,416 364,192" fill="none" stroke="black"/>
<polygon points="82,490 459,211 66,100" fill="none" stroke="black"/>
<polygon points="481,320 397,293 329,7" fill="none" stroke="black"/>
<polygon points="249,447 24,269 370,298" fill="none" stroke="black"/>
<polygon points="90,317 380,335 208,316" fill="none" stroke="black"/>
<polygon points="97,258 319,258 376,51" fill="none" stroke="black"/>
<polygon points="16,282 189,498 374,466" fill="none" stroke="black"/>
<polygon points="318,333 370,230 347,31" fill="none" stroke="black"/>
<polygon points="167,244 352,54 7,176" fill="none" stroke="black"/>
<polygon points="475,191 252,390 326,218" fill="none" stroke="black"/>
<polygon points="401,494 0,370 348,128" fill="none" stroke="black"/>
<polygon points="62,449 389,204 176,293" fill="none" stroke="black"/>
<polygon points="76,294 153,426 160,269" fill="none" stroke="black"/>
<polygon points="340,308 42,433 148,100" fill="none" stroke="black"/>
<polygon points="92,413 389,388 18,321" fill="none" stroke="black"/>
<polygon points="81,253 342,445 280,206" fill="none" stroke="black"/>
<polygon points="499,301 486,296 286,34" fill="none" stroke="black"/>
<polygon points="363,213 290,269 348,123" fill="none" stroke="black"/>
<polygon points="87,353 351,41 81,222" fill="none" stroke="black"/>
<polygon points="88,446 491,336 111,405" fill="none" stroke="black"/>
<polygon points="161,181 236,401 181,90" fill="none" stroke="black"/>
<polygon points="296,399 81,129 121,100" fill="none" stroke="black"/>
<polygon points="366,427 36,391 442,213" fill="none" stroke="black"/>
<polygon points="471,377 350,12 451,97" fill="none" stroke="black"/>
<polygon points="210,470 485,359 277,375" fill="none" stroke="black"/>
<polygon points="195,427 142,288 154,248" fill="none" stroke="black"/>
<polygon points="97,487 359,232 124,184" fill="none" stroke="black"/>
<polygon points="197,498 454,149 285,361" fill="none" stroke="black"/>
<polygon points="263,108 358,266 404,271" fill="none" stroke="black"/>
<polygon points="224,430 357,310 53,362" fill="none" stroke="black"/>
<polygon points="222,227 408,247 231,181" fill="none" stroke="black"/>
<polygon points="496,426 86,425 292,57" fill="none" stroke="black"/>
<polygon points="71,325 329,31 10,313" fill="none" stroke="black"/>
<polygon points="176,165 409,137 41,44" fill="none" stroke="black"/>
<polygon points="437,216 310,48 429,177" fill="none" stroke="black"/>
<polygon points="280,444 406,350 232,291" fill="none" stroke="black"/>
<polygon points="194,265 210,254 83,199" fill="none" stroke="black"/>
<polygon points="408,400 329,319 390,97" fill="none" stroke="black"/>
<polygon points="141,304 352,141 131,180" fill="none" stroke="black"/>
<polygon points="210,273 486,326 413,61" fill="none" stroke="black"/>
<polygon points="406,291 156,380 194,294" fill="none" stroke="black"/>
<polygon points="85,235 422,145 156,207" fill="none" stroke="black"/>
<polygon points="133,407 30,342 421,327" fill="none" stroke="black"/>
<polygon points="383,387 173,263 203,22" fill="none" stroke="black"/>
<polygon points="182,385 344,219 364,42" fill="none" stroke="black"/>
<polygon points="87,396 468,418 455,45" fill="none" stroke="black"/>
<polygon points="86,407 182,421 497,163" fill="none" stroke="black"/>
<polygon points="145,471 433,341 445,248" fill="none" stroke="black"/>
<polygon points="69,492 332,452 347,301" fill="none" stroke="black"/>
<polygon points="334,468 13,197 386,205" fill="none" stroke="black"/>
<polygon points="435,277 325,275 18,237" fill="none" stroke="black"/>
<polygon points="50,466 183,334 248,234" fill="none" stroke="black"/>
<polygon points="486,138 85,146 103,58" fill="none" stroke="black"/>
<polygon points="357,370 44,55 147,32" fill="none" stroke="black"/>
<polygon points="280,196 422,320 355,118" fill="none" stroke="black"/>
<polygon points="492,94 138,38 386,48" fill="none" stroke="black"/>
<polygon points="438,398 56,57 308,30" fill="none" stroke="black"/>
<polygon points="139,280 406,144 152,113" fill="none" stroke="black"/>
<polygon points="55,459 412,48 184,165" fill="none" stroke="black"/>
<polygon points="105,169 377,76 93,160" fill="none" stroke="black"/>
<polygon points="85,398 91,242 90,3" fill="none" stroke="black"/>
<polygon points="491,238 227,353 223,299" fill="none" stroke="black"/>
<polygon points="16,418 457,374 121,221" fill="none" stroke="black"/>
<polygon points="329,473 186,244 488,430" fill="none" stroke="black"/>
<polygon points="109,155 255,109 71,54" fill="none" stroke="black"/>
<polygon points="190,365 486,309 285,312" fill="none" stroke="black"/>
<polygon points="21,432 269,339 222,251" fill="none" stroke="black"/>
<polygon points="480,402 42,496 146,91" fill="none" stroke="black"/>
<polygon points="339,376 106,425 99,410" fill="none" stroke="black"/>
<polygon points="206,339 281,75 179,152" fill="none" stroke="black"/>
<polygon points="264,363 16,275 371,165" fill="none" stroke="black"/>
<polygon points="342,143 206,321 46,488" fill="none" stroke="black"/>
<polygon points="361,224 13,165 250,120" fill="none" stroke="black"/>
<polygon points="399,376 12,225 154,173" fill="none" stroke="black"/>
<polygon points="479,380 7,118 306,137" fill="none" stroke="black"/>
<polygon points="484,336 138,441 75,140" fill="none" stroke="black"/>
<polygon points="193,429 70,454 176,335" fill="none" stroke="black"/>
<polygon points="68,128 3,243 27,118" fill="none" stroke="black"/>
<polygon points="457,391 275,317 394,36" fill="none" stroke="black"/>
<polygon points="10,444 132,312 118,99" fill="none" stroke="black"/>
<polygon points="392,397 181,197 432,121" fill="none" stroke="black"/>
<polygon points="306,376 32,84 288,110" fill="none" stroke="black"/>
<polygon points="325,201 68,193 450,18" fill="none" stroke="black"/>
<polygon points="130,478 437,226 266,354" fill="none" stroke="black"/>
<polygon points="191,417 371,274 222,338" fill="none" stroke="black"/>
<polygon points="248,300 18,70 171,45" fill="none" stroke="black"/>
<polygon points="213,286 383,62 114,197" fill="none" stroke="black"/>
<polygon points="31,256 439,46 26,141" fill="none" stroke="black"/>
<polygon points="468,384 331,23 492,231" fill="none" stroke="black"/>
<polygon points="271,465 474,326 446,249" fill="none" stroke="black"/>
<polygon points="283,482 9,231 398,260" fill="none" stroke="black"/>
<polygon points="300,433 133,391 202,316" fill="none" stroke="black"/>
<polygon points="492,457 103,144 408,334" fill="none" stroke="black"/>
<polygon points="137,313 57,227 193,288" fill="none" stroke="black"/>
</svg>
