<svg xmlns="http://www.w3.org/2000/svg" width="1500" height="1500">
<circle cx="217" cy="261" r="19" fill="none" stroke="black"/>
<circle cx="224" cy="173" r="19" fill="none" stroke="black"/>
<circle cx="406" cy="198" r="11" fill="none" stroke="black"/>
<circle cx="162" cy="105" r="19" fill="none" stroke="black"/>
<circle cx="95" cy="340" r="10" fill="none" stroke="black"/>
<circle cx="395" cy="401" r="11" fill="none" stroke="black"/>
<circle cx="57" cy="370" r="18" fill="none" stroke="black"/>
<circle cx="23" cy="216" r="18" fill="none" stroke="black"/>
<circle cx="296" cy="104" r="11" fill="none" stroke="black"/>
<circle cx="130" cy="379" r="15" fill="none" stroke="black"/>
<circle cx="304" cy="339" r="11" fill="none" stroke="black"/>
<circle cx="156" cy="202" r="13" fill="none" stroke="black"/>
<circle cx="419" cy="471" r="17" fill="none" stroke="black"/>
<circle cx="184" cy="335" r="11" fill="none" stroke="black"/>
<circle cx="300" cy="16" r="15" fill="none" stroke="black"/>
<circle cx="270" cy="149" r="18" fill="none" stroke="black"/>
<circle cx="465" cy="304" r="16" fill="none" stroke="black"/>
<circle cx="232" cy="214" r="12" fill="none" stroke="black"/>
<circle cx="302" cy="54" r="20" fill="none" stroke="black"/>
<circle cx="36" cy="56" r="18" fill="none" stroke="black"/>
<circle cx="134" cy="327" r="20" fill="none" stroke="black"/>
<circle cx="448" cy="484" r="13" fill="none" stroke="black"/>
<circle cx="353" cy="311" r="12" fill="none" stroke="black"/>
<circle cx="96" cy="230" r="17" fill="none" stroke="black"/>
<circle cx="50" cy="99" r="16" fill="none" stroke="black"/>
<circle cx="21" cy="179" r="11" fill="none" stroke="black"/>
<circle cx="298" cy="465" r="16" fill="none" stroke="black"/>
<circle cx="78" cy="392" r="11" fill="none" stroke="black"/>
<circle cx="110" cy="27" r="17" fill="none" stroke="black"/>
<circle cx="196" cy="405" r="15" fill="none" stroke="black"/>
<circle cx="94" cy="317" r="12" fill="none" stroke="black"/>
<circle cx="80" cy="145" r="16" fill="none" stroke="black"/>
<circle cx="279" cy="229" r="19" fill="none" stroke="black"/>
<circle cx="357" cy="252" r="17" fill="none" stroke="black"/>
<circle cx="91" cy="70" r="16" fill="none" stroke="black"/>
<circle cx="89" cy="111" r="17" fill="none" stroke="black"/>
<circle cx="240" cy="482" r="15" fill="none" stroke="black"/>
<circle cx="197" cy="162" r="10" fill="none" stroke="black"/>
<circle cx="238" cy="16" r="11" fill="none" stroke="black"/>
<circle cx="242" cy="350" r="19" fill="none" stroke="black"/>
<circle cx="346" cy="220" r="16" fill="none" stroke="black"/>
<circle cx="381" cy="364" r="16" fill="none" stroke="black"/>
<circle cx="190" cy="31" r="16" fill="none" stroke="black"/>
<circle cx="238" cy="104" r="13" fill="none" stroke="black"/>
<circle cx="319" cy="167" r="20" fill="none" stroke="black"/>
<circle cx="419" cy="259" r="16" fill="none" stroke="black"/>
<circle cx="486" cy="82" r="12" fill="none" stroke="black"/>
<circle cx="432" cy="378" r="10" fill="none" stroke="black"/>
<circle cx="29" cy="473" r="17" fill="none" stroke="black"/>
<circle cx="322" cy="371" r="16" fill="none" stroke="black"/>
<circle cx="37" cy="270" r="11" fill="none" stroke="black"/>
<circle cx="218" cy="461" r="13" fill="none" stroke="black"/>
<circle cx="217" cy="327" r="11" fill="none" stroke="black"/>
<circle cx="470" cy="413" r="11" fill="none" stroke="black"/>
<circle cx="148" cy="238" r="19" fill="none" stroke="black"/>
<circle cx="185" cy="142" r="11" fill="none" stroke="black"/>
<circle cx="309" cy="249" r="17" fill="none" stroke="black"/>
<circle cx="167" cy="311" r="11" fill="none" stroke="black"/>
<circle cx="302" cy="394" r="10" fill="none" stroke="black"/>
<circle cx="362" cy="410" r="17" fill="none" stroke="black"/>
<circle cx="276" cy="23" r="10" fill="none" stroke="black"/>
<circle cx="362" cy="84" r="15" fill="none" stroke="black"/>
<circle cx="462" cy="189" r="16" fill="none" stroke="black"/>
<circle cx="148" cy="16" r="12" fill="none" stroke="black"/>
<circle cx="326" cy="302" r="13" fill="none" stroke="black"/>
<circle cx="233" cy="60" r="14" fill="none" stroke="black"/>
<circle cx="41" cy="310" r="20" fill="none" stroke="black"/>
<circle cx="378" cy="297" r="11" fill="none" stroke="black"/>
<circle cx="44" cy="146" r="10" fill="none" stroke="black"/>
<circle cx="407" cy="329" r="11" fill="none" stroke="black"/>
<circle cx="448" cy="89" r="20" fill="none" stroke="black"/>
<circle cx="258" cy="406" r="17" fill="none" stroke="black"/>
<circle cx="480" cy="120" r="12" fill="none" stroke="black"/>
<circle cx="191" cy="83" r="16" fill="none" stroke="black"/>
<circle cx="403" cy="26" r="14" fill="none" stroke="black"/>
<circle cx="264" cy="276" r="14" fill="none" stroke="black"/>
<circle cx="261" cy="460" r="12" fill="none" stroke="black"/>
<circle cx="454" cy="225" r="20" fill="none" stroke="black"/>
<circle cx="56" cy="178" r="16" fill="none" stroke="black"/>
<circle cx="165" cy="268" r="15" fill="none" stroke="black"/>
<circle cx="96" cy="479" r="18" fill="none" stroke="black"/>
<circle cx="167" cy="366" r="18" fill="none" stroke="black"/>
<circle cx="349" cy="23" r="16" fill="none" stroke="black"/>
<circle cx="82" cy="275" r="18" fill="none" stroke="black"/>
<circle cx="249" cy="311" r="12" fill="none" stroke="black"/>
<circle cx="176" cy="181" r="15" fill="none" stroke="black"/>
<circle cx="81" cy="420" r="14" fill="none" stroke="black"/>
<circle cx="130" cy="171" r="18" fill="none" stroke="black"/>
<circle cx="476" cy="159" r="14" fill="none" stroke="black"/>
<circle cx="421" cy="149" r="11" fill="none" stroke="black"/>
<circle cx="377" cy="446" r="12" fill="none" stroke="black"/>
<circle cx="111" cy="265" r="11" fill="none" stroke="black"/>
<circle cx="12" cy="356" r="11" fill="none" stroke="black"/>
<circle cx="363" cy="125" r="18" fill="none" stroke="black"/>
<circle cx="457" cy="40" r="19" fill="none" stroke="black"/>
<circle cx="182" cy="445" r="15" fill="none" stroke="black"/>
<circle cx="293" cy="310" r="14" fill="none" stroke="black"/>
<circle cx="269" cy="81" r="10" fill="none" stroke="black"/>
<circle cx="337" cy="340" r="17" fill="none" stroke="black"/>
<circle cx="127" cy="460" r="17" fill="none" stroke="black"/>
</svg>